<?xml version="1.0" encoding="utf-8"?>
<!-- Generator: Adobe Illustrator 16.0.0, SVG Export Plug-In . SVG Version: 6.00 Build 0)  -->
<!DOCTYPE svg PUBLIC "-//W3C//DTD SVG 1.1//EN" "http://www.w3.org/Graphics/SVG/1.1/DTD/svg11.dtd">
<svg version="1.1" id="Layer_1" xmlns="http://www.w3.org/2000/svg" xmlns:xlink="http://www.w3.org/1999/xlink" x="0px" y="0px"
	 width="500px" height="500px" viewBox="0 0 500 500" enable-background="new 0 0 500 500" xml:space="preserve">
<g>
	<g>
		<g>
			<rect x="204.582" y="241.293" width="31.828" height="118.127"/>
		</g>
		<g>
			<rect x="255.733" y="152.699" transform="matrix(0.5 0.866 -0.866 0.5 319.2064 -129.373)" width="31.827" height="118.126"/>
		</g>
		<g>
			<rect x="110.283" y="195.848" transform="matrix(0.866 0.5 -0.5 0.866 128.5671 -56.3019)" width="118.126" height="31.827"/>
		</g>
	</g>
	<g>
		<g>
			<path d="M307.573,186.309c-3.931-15.137-11.281-33.951-23.983-37.623c-13.904-4.035-33.114,10.158-38.743,15.445l-21.901-23.094
				c0.865-0.822,8.787-8.227,20.447-14.746c17.185-9.605,34.083-12.449,48.881-8.227c21.833,6.234,37.344,26.504,46.104,60.248
				L307.573,186.309z"/>
		</g>
		<g>
			<path d="M368.071,248.291c-4.782,0-9.421-0.631-13.87-1.902c-21.834-6.232-37.346-26.502-46.105-60.248l30.805-7.996
				c3.938,15.164,11.304,34.006,24.038,37.641c14.334,4.092,34.132-11.127,38.65-15.426l21.94,23.057
				c-0.865,0.822-8.787,8.229-20.446,14.746C391.066,244.881,379.188,248.291,368.071,248.291z"/>
		</g>
	</g>
	<g>
		<g>
			<path d="M250.021,379.945c-10.062,0-21.276-1.686-33.612-5.064l8.404-30.695c15.085,4.129,35.06,7.125,44.571-2.062
				c10.416-10.061,7.679-33.775,5.899-41.291l30.933-7.492c0.282,1.162,2.76,11.717,2.605,25.076
				c-0.229,19.684-6.179,35.758-17.209,46.484C281.308,374.922,267.384,379.945,250.021,379.945z"/>
		</g>
		<g>
			<path d="M134.893,426.262c-0.283-1.16-2.76-11.715-2.606-25.074c0.227-19.688,6.178-35.762,17.208-46.488
				c16.279-15.83,41.582-19.184,75.206-9.977l-8.408,30.695c-15.08-4.127-35.058-7.127-44.568,2.061
				c-10.415,10.061-7.679,33.775-5.899,41.291L134.893,426.262z"/>
		</g>
	</g>
	<g>
		<g>
			<path d="M250.021,379.945c-10.062,0-21.276-1.686-33.612-5.064l8.404-30.695c15.085,4.129,35.06,7.125,44.571-2.062
				c10.416-10.061,7.679-33.775,5.899-41.291l30.933-7.492c0.282,1.162,2.76,11.717,2.605,25.076
				c-0.229,19.684-6.179,35.758-17.209,46.484C281.308,374.922,267.384,379.945,250.021,379.945z"/>
		</g>
		<g>
			<path d="M134.893,426.262c-0.283-1.16-2.76-11.715-2.606-25.074c0.227-19.688,6.178-35.762,17.208-46.488
				c16.279-15.83,41.582-19.184,75.206-9.977l-8.408,30.695c-15.08-4.127-35.058-7.127-44.568,2.061
				c-10.415,10.061-7.679,33.775-5.899,41.291L134.893,426.262z"/>
		</g>
	</g>
	<g>
		<g>
			<path d="M132.178,288.801c-1.145-0.346-11.499-3.561-22.936-10.465c-16.852-10.174-27.693-23.453-31.347-38.398
				c-5.393-22.055,4.54-45.566,29.52-69.885l22.201,22.807c-11.227,10.928-23.949,26.656-20.804,39.52
				c3.538,14.477,26.564,24.146,32.537,25.943L132.178,288.801z"/>
		</g>
		<g>
			<path d="M129.207,192.486L107.01,169.68c11.227-10.928,23.949-26.656,20.804-39.52c-3.538-14.477-26.566-24.148-32.539-25.943
				l9.173-30.479c1.144,0.344,11.498,3.561,22.935,10.465c16.854,10.174,27.694,23.451,31.349,38.396
				C164.123,144.656,154.19,168.168,129.207,192.486z"/>
		</g>
	</g>
</g>
</svg>
